<svg xmlns="http://www.w3.org/2000/svg" width="400" height="100" viewBox="0 0 400 100">
  <path stroke="#22ECFF" stroke-width="1px" fill="none" d="M0,50.5L0,50.5L0,50.5c1.7-4.4,7.8-31.3,15.2-31.2c7.3,0.1,7.6,23.4,15.2,26.1c7.2,2.5,16.1-13.1,20.8-13.1 c6.3,0.1,14.3,47.1,20.8,47.2c13.7,0.4,28.9-61.4,40.1-61.3c11.4,0.1,21.2,38.2,29.1,38.2c8.3-0.1,13-33.3,19.4-33.2 c6.9,0.1,9.9,50,19.9,51.1c9,1,15.2-14.9,20.2-14.9c5.8-0.1,13.9,31.9,23.5,20.1c9.6-11.8,18.3-62.3,26.3-63.3 c7-0.9,13.7,40.6,19.4,41.2c8.6,0.9,12.7-51.9,19.4-51.3c6.2,0.6,6,41.3,16.6,41.2c8.6-0.1,10.6-11,16.6-11.1c7-0.1,7,29,11.1,29.1 c3.9,0.1,3-11,6.9-11.1c5,0,5,30,9.7,30.2c3.4,0.1,11.1-40.2,13.8-50.3c2.8-10.1,11.1-21.1,16.6-16.1c5.5,5,11.1,14.1,19.4,32.2"/>
</svg>
